<?xml version="1.0" standalone="no"?>
<!DOCTYPE svg PUBLIC "-//W3C//DTD SVG 20010904//EN"
 "http://www.w3.org/TR/2001/REC-SVG-20010904/DTD/svg10.dtd">
<svg version="1.0" xmlns="http://www.w3.org/2000/svg"
 width="736.000000pt" height="736.000000pt" viewBox="0 0 736.000000 736.000000"
 preserveAspectRatio="xMidYMid meet">
<metadata>
Created by potrace 1.11, written by Peter Selinger 2001-2013
</metadata>
<g transform="translate(0.000000,736.000000) scale(0.100000,-0.100000)"
fill="#000000" stroke="none">
<path d="M0 3680 l0 -3680 3680 0 3680 0 0 3680 0 3680 -3680 0 -3680 0 0
-3680z m3810 1446 c0 -794 -3 -1147 -11 -1151 -21 -14 -920 -18 -1124 -6 -436
26 -735 88 -869 181 -40 27 -46 28 -46 13 0 -10 25 -264 55 -563 30 -300 55
-552 55 -560 0 -21 151 -121 267 -176 377 -181 882 -274 1490 -274 l183 0 0
-350 0 -350 326 0 c288 0 337 2 426 20 445 91 751 431 868 965 51 237 53 266
57 1010 3 468 1 736 -6 810 -44 430 -214 822 -481 1110 -49 53 -51 56 -15 28
22 -17 76 -69 121 -115 264 -275 433 -621 486 -998 l14 -95 74 -37 c77 -38
117 -75 151 -140 48 -94 48 -451 -1 -848 -38 -308 -204 -1340 -221 -1371 -18
-35 -73 -68 -125 -74 l-50 -7 -34 -92 c-96 -265 -233 -490 -400 -656 -166
-166 -318 -255 -540 -317 -59 -16 -114 -18 -585 -18 -516 0 -521 0 -595 23
-93 29 -220 95 -302 158 -99 75 -277 260 -476 495 -369 433 -435 556 -497 910
-20 112 -40 214 -45 227 -9 21 -16 23 -57 19 -44 -4 -50 -2 -96 42 -27 25 -63
65 -79 89 -20 29 -36 42 -52 42 -29 0 -66 51 -106 146 -77 186 -89 467 -29
684 22 79 64 170 79 170 5 0 23 28 40 63 45 90 90 157 106 157 8 0 14 6 14 13
0 22 96 211 143 280 31 47 48 83 52 115 101 735 639 1335 1360 1516 86 21 162
34 290 49 17 2 65 5 108 6 l77 1 0 -1144z m-152 -4498 c15 -15 16 -84 2 -93
-7 -4 -8 -11 -2 -18 6 -7 12 -36 13 -65 4 -48 2 -52 -18 -52 -23 0 -30 14 -35
75 -2 19 -9 30 -18 30 -11 0 -16 -14 -18 -52 -3 -45 -6 -53 -23 -53 -18 0 -19
8 -19 120 l0 120 53 0 c29 0 58 -5 65 -12z m165 -90 c10 -57 21 -111 23 -120
4 -14 -1 -18 -20 -18 -19 0 -26 5 -26 20 0 13 -7 20 -19 20 -11 0 -23 -9 -26
-20 -7 -22 -45 -28 -45 -7 0 6 10 60 21 120 21 103 23 107 48 107 26 0 27 -3
44 -102z m142 44 c7 -61 25 -107 25 -65 0 12 5 45 11 73 10 48 12 50 45 50
l34 0 0 -120 c0 -113 -1 -120 -20 -120 -17 0 -19 8 -22 83 l-3 82 -15 -80
c-13 -69 -18 -80 -37 -83 -18 -3 -23 4 -32 48 -6 28 -11 59 -11 68 0 9 -5 24
-10 32 -7 10 -8 -11 -4 -67 l7 -83 -27 0 -26 0 0 120 0 120 39 0 39 0 7 -58z"/>
<path d="M3275 1767 c-4 -13 -5 -41 -3 -63 l3 -39 268 -3 268 -2 -3 62 -3 63
-262 3 -262 3 -6 -24z"/>
<path d="M3580 570 c0 -23 5 -30 19 -30 19 0 31 25 24 48 -3 6 -13 12 -24 12
-14 0 -19 -7 -19 -30z"/>
<path d="M3770 518 c0 -21 5 -38 10 -38 13 0 13 40 0 60 -7 11 -10 5 -10 -22z"/>
</g>
</svg>
